<svg width="496" height="496" viewBox="0 0 496 496" fill="none" xmlns="http://www.w3.org/2000/svg">
<path d="M263.2 253.2C286.175 253.2 304.8 234.575 304.8 211.6C304.8 188.625 286.175 170 263.2 170C240.225 170 221.6 188.625 221.6 211.6C221.6 234.575 240.225 253.2 263.2 253.2Z" fill="#EF9122"/>
<path d="M221.6 211.6C221.6 188.4 240 170 263.2 170C286.4 170 304.8 188.4 304.8 211.6C304.8 234.8 286.4 253.2 263.2 253.2" fill="#F26E21"/>
<path d="M234.4 182C250.4 166 276.8 166 292.8 182C308.8 198 308.8 224.4 292.8 240.4" fill="#F44500"/>
<path d="M22.4 172.4H0V250.8H22.4C34.4 250.8 43.2 247.6 50.4 242C59.2 234.8 64.8 223.6 64.8 211.6C64.8 188.4 48 172.4 22.4 172.4ZM40.8 231.6C36 235.6 29.6 238 20 238H15.2V186H19.2C28.8 186 35.2 187.6 40 192.4C45.6 197.2 48.8 204.4 48.8 211.6C49.6 218.8 46.4 226.8 40.8 231.6Z" fill="#595A5B"/>
<path d="M87.2 172.4H72V250.8H87.2V172.4Z" fill="#595A5B"/>
<path d="M125.6 202.8C116 199.6 113.6 197.2 113.6 193.2C113.6 188.4 118.4 184.4 124.8 184.4C129.6 184.4 133.6 186 137.6 190.8L145.6 180.4C139.2 174.8 131.2 171.6 122.4 171.6C108.8 171.6 97.6 181.2 97.6 194C97.6 205.2 102.4 210 116.8 215.6C123.2 218 125.6 218.8 127.2 220.4C130.4 222 132 225.2 132 228.4C132 234.8 127.2 239.6 120 239.6C112.8 239.6 106.4 235.6 103.2 229.2L93.6 238.8C100.8 249.2 109.6 254 120.8 254C136.8 254 148 243.6 148 228.4C148 214.8 143.2 209.2 125.6 202.8Z" fill="#595A5B"/>
<path d="M152.8 211.6C152.8 234.8 171.2 252.4 194.4 252.4C200.8 252.4 206.4 250.8 213.6 247.6V229.2C207.2 235.6 201.6 238 195.2 238C180 238 168.8 226.8 168.8 210.8C168.8 195.6 180 183.6 194.4 183.6C201.6 183.6 207.2 186 213.6 192.4V174C207.2 170.8 201.6 169.2 194.4 169.2C172 170.8 152.8 189.2 152.8 211.6Z" fill="#3B3D3F"/>
<path d="M339.2 225.2L318.4 172.4H301.6L334.4 253.2H343.2L377.6 172.4H360.8L339.2 225.2Z" fill="black"/>
<path d="M384 250.8H428V238H400V216.4H427.2V202.8H400V186H428V172.4H384V250.8Z" fill="black"/>
<path d="M471.2 218C483.2 215.6 489.6 207.6 489.6 195.6C489.6 181.2 479.2 172.4 461.6 172.4H438.4V250.8H453.6V219.6H456L477.6 250.8H496L471.2 218ZM458.4 208.4H453.6V184.4H458.4C468 184.4 473.6 188.4 473.6 196.4C473.6 204.4 468 208.4 458.4 208.4Z" fill="#595A5B"/>
<path d="M22.4 172.4H0V250.8H22.4C34.4 250.8 43.2 247.6 50.4 242C59.2 234.8 64.8 223.6 64.8 211.6C64.8 188.4 48 172.4 22.4 172.4ZM40.8 231.6C36 235.6 29.6 238 20 238H15.2V186H19.2C28.8 186 35.2 187.6 40 192.4C45.6 197.2 48.8 204.4 48.8 211.6C49.6 218.8 46.4 226.8 40.8 231.6Z" fill="#595A5B"/>
<path d="M87.2 172.4H72V250.8H87.2V172.4Z" fill="#595A5B"/>
<path d="M125.6 202.8C116 199.6 113.6 197.2 113.6 193.2C113.6 188.4 118.4 184.4 124.8 184.4C129.6 184.4 133.6 186 137.6 190.8L145.6 180.4C139.2 174.8 131.2 171.6 122.4 171.6C108.8 171.6 97.6 181.2 97.6 194C97.6 205.2 102.4 210 116.8 215.6C123.2 218 125.6 218.8 127.2 220.4C130.4 222 132 225.2 132 228.4C132 234.8 127.2 239.6 120 239.6C112.8 239.6 106.4 235.6 103.2 229.2L93.6 238.8C100.8 249.2 109.6 254 120.8 254C136.8 254 148 243.6 148 228.4C148 214.8 143.2 209.2 125.6 202.8Z" fill="#595A5B"/>
<path d="M195.2 252.4C201.6 252.4 207.2 250.8 214.4 247.6V229.2C208 235.6 202.4 238 196 238C180.8 238 169.6 226.8 169.6 210.8C169.6 202.8 172.8 196.4 177.6 190.8L167.2 180.4C159.2 187.6 153.6 198.8 153.6 210.8C152.8 234.8 171.2 252.4 195.2 252.4Z" fill="#595A5B"/>
<path d="M471.2 218C483.2 215.6 489.6 207.6 489.6 195.6C489.6 181.2 479.2 172.4 461.6 172.4H438.4V250.8H453.6V219.6H456L477.6 250.8H496L471.2 218ZM458.4 208.4H453.6V184.4H458.4C468 184.4 473.6 188.4 473.6 196.4C473.6 204.4 468 208.4 458.4 208.4Z" fill="black"/>
<path d="M414.4 238H400V223.6L384 207.6V250.8H427.2L414.4 238Z" fill="#3B3D3F"/>
<path d="M356.8 180.4L339.2 225.2L318.4 172.4H301.6L334.4 253.2H343.2L368.8 192.4L356.8 180.4Z" fill="#3B3D3F"/>
</svg>
